<svg width="119" height="119" viewBox="0 0 119 119" fill="none" xmlns="http://www.w3.org/2000/svg">
<path d="M118.468 59.2342C118.468 91.9484 91.9484 118.468 59.2342 118.468C26.5201 118.468 0 91.9484 0 59.2342C0 26.5201 26.5201 0 59.2342 0C91.9484 0 118.468 26.5201 118.468 59.2342Z" fill="#FE9433"/>
<path d="M64.7484 59.0269C66.3218 59.3202 67.6151 60.1069 68.6284 61.3869C69.6418 62.6669 70.1484 64.1335 70.1484 65.7869C70.1484 67.2802 69.7751 68.6002 69.0284 69.7469C68.3084 70.8669 67.2551 71.7469 65.8684 72.3869C64.4818 73.0269 62.8418 73.3469 60.9484 73.3469H48.9084V45.4269H60.4284C62.3218 45.4269 63.9484 45.7335 65.3084 46.3469C66.6951 46.9602 67.7351 47.8135 68.4284 48.9069C69.1484 50.0002 69.5084 51.2402 69.5084 52.6269C69.5084 54.2535 69.0684 55.6135 68.1884 56.7069C67.3351 57.8002 66.1884 58.5735 64.7484 59.0269ZM54.5084 56.9469H59.6284C60.9618 56.9469 61.9884 56.6535 62.7084 56.0669C63.4284 55.4535 63.7884 54.5869 63.7884 53.4669C63.7884 52.3469 63.4284 51.4802 62.7084 50.8669C61.9884 50.2535 60.9618 49.9469 59.6284 49.9469H54.5084V56.9469ZM60.1484 68.7869C61.5084 68.7869 62.5618 68.4669 63.3084 67.8269C64.0818 67.1869 64.4684 66.2802 64.4684 65.1069C64.4684 63.9069 64.0684 62.9735 63.2684 62.3069C62.4684 61.6135 61.3884 61.2669 60.0284 61.2669H54.5084V68.7869H60.1484Z" fill="white"/>
</svg>
