<svg width="119" height="119" viewBox="0 0 119 119" fill="none" xmlns="http://www.w3.org/2000/svg">
<path d="M118.468 59.2342C118.468 91.9484 91.9484 118.468 59.2342 118.468C26.5201 118.468 0 91.9484 0 59.2342C0 26.5201 26.5201 0 59.2342 0C91.9484 0 118.468 26.5201 118.468 59.2342Z" fill="#FE9433"/>
<path d="M57.1841 45.4269C60.1174 45.4269 62.6907 46.0002 64.9041 47.1469C67.1441 48.2935 68.8641 49.9335 70.0641 52.0669C71.2907 54.1735 71.9041 56.6269 71.9041 59.4269C71.9041 62.2269 71.2907 64.6802 70.0641 66.7869C68.8641 68.8669 67.1441 70.4802 64.9041 71.6269C62.6907 72.7735 60.1174 73.3469 57.1841 73.3469H47.4241V45.4269H57.1841ZM56.9841 68.5869C59.9174 68.5869 62.1841 67.7869 63.7841 66.1869C65.3841 64.5869 66.1841 62.3335 66.1841 59.4269C66.1841 56.5202 65.3841 54.2535 63.7841 52.6269C62.1841 50.9735 59.9174 50.1469 56.9841 50.1469H53.0241V68.5869H56.9841Z" fill="white"/>
</svg>
