<svg width="119" height="119" viewBox="0 0 119 119" fill="none" xmlns="http://www.w3.org/2000/svg">
<path d="M118.468 59.2342C118.468 91.9484 91.9484 118.468 59.2342 118.468C26.5201 118.468 0 91.9484 0 59.2342C0 26.5201 26.5201 0 59.2342 0C91.9484 0 118.468 26.5201 118.468 59.2342Z" fill="#803828"/>
<path d="M65.8484 53.8269C65.2084 52.6535 64.3284 51.7602 63.2084 51.1469C62.0884 50.5335 60.7818 50.2269 59.2884 50.2269C57.6351 50.2269 56.1684 50.6002 54.8884 51.3469C53.6084 52.0935 52.6084 53.1602 51.8884 54.5469C51.1684 55.9335 50.8084 57.5335 50.8084 59.3469C50.8084 61.2135 51.1684 62.8402 51.8884 64.2269C52.6351 65.6135 53.6618 66.6802 54.9684 67.4269C56.2751 68.1735 57.7951 68.5469 59.5284 68.5469C61.6618 68.5469 63.4084 67.9869 64.7684 66.8669C66.1284 65.7202 67.0218 64.1335 67.4484 62.1069H57.8484V57.8269H72.9684V62.7069C72.5951 64.6535 71.7951 66.4535 70.5684 68.1069C69.3418 69.7602 67.7551 71.0935 65.8084 72.1069C63.8884 73.0935 61.7284 73.5869 59.3284 73.5869C56.6351 73.5869 54.1951 72.9869 52.0084 71.7869C49.8484 70.5602 48.1418 68.8669 46.8884 66.7069C45.6618 64.5469 45.0484 62.0935 45.0484 59.3469C45.0484 56.6002 45.6618 54.1469 46.8884 51.9869C48.1418 49.8002 49.8484 48.1069 52.0084 46.9069C54.1951 45.6802 56.6218 45.0669 59.2884 45.0669C62.4351 45.0669 65.1684 45.8402 67.4884 47.3869C69.8084 48.9069 71.4084 51.0535 72.2884 53.8269H65.8484Z" fill="white"/>
</svg>
